<mxfile host="app.diagrams.net" agent="Mozilla/5.0 (Macintosh; Intel Mac OS X 10_15_7) AppleWebKit/537.36 (KHTML, like Gecko) Chrome/126.0.0.0 Safari/537.36" version="24.8.4">
  <diagram id="R2lEEEUBdFMjLlhIrx00" name="Page-1">
    <mxGraphModel dx="2963" dy="1649" grid="1" gridSize="10" guides="1" tooltips="1" connect="1" arrows="1" fold="1" page="1" pageScale="1" pageWidth="850" pageHeight="1100" math="0" shadow="0" extFonts="Permanent Marker^https://fonts.googleapis.com/css?family=Permanent+Marker">
      <root>
        <mxCell id="0" />
        <mxCell id="1" parent="0" />
        <mxCell id="z04AXw_WrLB0skWwdDPF-2" value="Crime" style="whiteSpace=wrap;html=1;align=center;" vertex="1" parent="1">
          <mxGeometry x="700" y="360" width="100" height="40" as="geometry" />
        </mxCell>
        <mxCell id="z04AXw_WrLB0skWwdDPF-3" value="Interrogation" style="shape=ext;margin=3;double=1;whiteSpace=wrap;html=1;align=center;" vertex="1" parent="1">
          <mxGeometry x="700" y="200" width="100" height="40" as="geometry" />
        </mxCell>
        <mxCell id="z04AXw_WrLB0skWwdDPF-4" value="Evidence" style="shape=ext;margin=3;double=1;whiteSpace=wrap;html=1;align=center;" vertex="1" parent="1">
          <mxGeometry x="700" y="282.5" width="100" height="40" as="geometry" />
        </mxCell>
        <mxCell id="z04AXw_WrLB0skWwdDPF-74" value="" style="group" vertex="1" connectable="0" parent="1">
          <mxGeometry x="50" y="35" width="550" height="375" as="geometry" />
        </mxCell>
        <mxCell id="z04AXw_WrLB0skWwdDPF-40" value="&lt;font style=&quot;font-size: 8px;&quot;&gt;PersonID&lt;/font&gt;" style="ellipse;whiteSpace=wrap;html=1;align=center;fontStyle=4;" vertex="1" parent="z04AXw_WrLB0skWwdDPF-74">
          <mxGeometry x="68.75" y="86.53846153846155" width="68.75" height="34.61538461538462" as="geometry" />
        </mxCell>
        <mxCell id="z04AXw_WrLB0skWwdDPF-41" value="&lt;font style=&quot;font-size: 8px;&quot;&gt;First Name&lt;/font&gt;" style="ellipse;whiteSpace=wrap;html=1;align=center;" vertex="1" parent="z04AXw_WrLB0skWwdDPF-74">
          <mxGeometry x="137.5" y="34.61538461538462" width="68.75" height="34.61538461538462" as="geometry" />
        </mxCell>
        <mxCell id="z04AXw_WrLB0skWwdDPF-42" value="&lt;font style=&quot;font-size: 8px;&quot;&gt;Last Name&lt;/font&gt;" style="ellipse;whiteSpace=wrap;html=1;align=center;" vertex="1" parent="z04AXw_WrLB0skWwdDPF-74">
          <mxGeometry x="229.16666666666666" width="68.75" height="34.61538461538462" as="geometry" />
        </mxCell>
        <mxCell id="z04AXw_WrLB0skWwdDPF-43" value="&lt;font style=&quot;font-size: 8px;&quot;&gt;Address&lt;/font&gt;" style="ellipse;whiteSpace=wrap;html=1;align=center;" vertex="1" parent="z04AXw_WrLB0skWwdDPF-74">
          <mxGeometry x="320.8333333333333" y="34.61538461538462" width="57.291666666666664" height="34.61538461538462" as="geometry" />
        </mxCell>
        <mxCell id="z04AXw_WrLB0skWwdDPF-44" value="&lt;font style=&quot;font-size: 8px;&quot;&gt;Phone Number&lt;/font&gt;" style="ellipse;whiteSpace=wrap;html=1;align=center;" vertex="1" parent="z04AXw_WrLB0skWwdDPF-74">
          <mxGeometry x="366.66666666666663" y="85.38461538461539" width="91.66666666666666" height="34.61538461538462" as="geometry" />
        </mxCell>
        <mxCell id="z04AXw_WrLB0skWwdDPF-47" value="" style="endArrow=none;html=1;rounded=0;entryX=0;entryY=0.5;entryDx=0;entryDy=0;" edge="1" parent="z04AXw_WrLB0skWwdDPF-74" target="z04AXw_WrLB0skWwdDPF-1">
          <mxGeometry relative="1" as="geometry">
            <mxPoint x="137.5" y="103.56923076923077" as="sourcePoint" />
            <mxPoint x="320.8333333333333" y="103.56923076923077" as="targetPoint" />
          </mxGeometry>
        </mxCell>
        <mxCell id="z04AXw_WrLB0skWwdDPF-48" value="" style="endArrow=none;html=1;rounded=0;entryX=0;entryY=0;entryDx=0;entryDy=0;" edge="1" parent="z04AXw_WrLB0skWwdDPF-74" target="z04AXw_WrLB0skWwdDPF-1">
          <mxGeometry relative="1" as="geometry">
            <mxPoint x="171.875" y="69.23076923076924" as="sourcePoint" />
            <mxPoint x="255.52083333333331" y="101.81538461538463" as="targetPoint" />
          </mxGeometry>
        </mxCell>
        <mxCell id="z04AXw_WrLB0skWwdDPF-49" value="" style="endArrow=none;html=1;rounded=0;entryX=0.5;entryY=0;entryDx=0;entryDy=0;" edge="1" parent="z04AXw_WrLB0skWwdDPF-74" target="z04AXw_WrLB0skWwdDPF-1">
          <mxGeometry relative="1" as="geometry">
            <mxPoint x="263.54166666666663" y="34.61538461538462" as="sourcePoint" />
            <mxPoint x="312.8125" y="86.53846153846155" as="targetPoint" />
          </mxGeometry>
        </mxCell>
        <mxCell id="z04AXw_WrLB0skWwdDPF-50" value="" style="endArrow=none;html=1;rounded=0;entryX=1;entryY=0;entryDx=0;entryDy=0;exitX=0.5;exitY=1;exitDx=0;exitDy=0;" edge="1" parent="z04AXw_WrLB0skWwdDPF-74" source="z04AXw_WrLB0skWwdDPF-43" target="z04AXw_WrLB0skWwdDPF-1">
          <mxGeometry relative="1" as="geometry">
            <mxPoint x="275" y="46.15384615384616" as="sourcePoint" />
            <mxPoint x="275" y="132.6923076923077" as="targetPoint" />
          </mxGeometry>
        </mxCell>
        <mxCell id="z04AXw_WrLB0skWwdDPF-52" value="&lt;span style=&quot;font-size: 8px;&quot;&gt;Rank&lt;/span&gt;" style="ellipse;whiteSpace=wrap;html=1;align=center;" vertex="1" parent="z04AXw_WrLB0skWwdDPF-74">
          <mxGeometry x="418.22916666666663" y="291.3461538461538" width="45.83333333333333" height="34.61538461538462" as="geometry" />
        </mxCell>
        <mxCell id="z04AXw_WrLB0skWwdDPF-53" value="&lt;span style=&quot;font-size: 8px;&quot;&gt;Investigation Count&lt;/span&gt;" style="ellipse;whiteSpace=wrap;html=1;align=center;" vertex="1" parent="z04AXw_WrLB0skWwdDPF-74">
          <mxGeometry x="446.875" y="236.53846153846152" width="103.125" height="34.61538461538462" as="geometry" />
        </mxCell>
        <mxCell id="z04AXw_WrLB0skWwdDPF-54" value="&lt;span style=&quot;font-size: 8px;&quot;&gt;Department&lt;/span&gt;" style="ellipse;whiteSpace=wrap;html=1;align=center;" vertex="1" parent="z04AXw_WrLB0skWwdDPF-74">
          <mxGeometry x="401.04166666666663" y="177.4038461538462" width="80.20833333333333" height="34.61538461538462" as="geometry" />
        </mxCell>
        <mxCell id="z04AXw_WrLB0skWwdDPF-56" value="" style="endArrow=none;html=1;rounded=0;entryX=1;entryY=0;entryDx=0;entryDy=0;exitX=0.5;exitY=1;exitDx=0;exitDy=0;" edge="1" parent="z04AXw_WrLB0skWwdDPF-74" source="z04AXw_WrLB0skWwdDPF-54" target="z04AXw_WrLB0skWwdDPF-6">
          <mxGeometry relative="1" as="geometry">
            <mxPoint x="442.8645833333333" y="212.0192307692308" as="sourcePoint" />
            <mxPoint x="389.5833333333333" y="236.53846153846152" as="targetPoint" />
          </mxGeometry>
        </mxCell>
        <mxCell id="z04AXw_WrLB0skWwdDPF-57" value="" style="endArrow=none;html=1;rounded=0;entryX=1;entryY=0.5;entryDx=0;entryDy=0;exitX=0;exitY=0.5;exitDx=0;exitDy=0;" edge="1" parent="z04AXw_WrLB0skWwdDPF-74" source="z04AXw_WrLB0skWwdDPF-53" target="z04AXw_WrLB0skWwdDPF-6">
          <mxGeometry relative="1" as="geometry">
            <mxPoint x="446.875" y="251.79230769230773" as="sourcePoint" />
            <mxPoint x="386.1458333333333" y="285.5769230769231" as="targetPoint" />
          </mxGeometry>
        </mxCell>
        <mxCell id="z04AXw_WrLB0skWwdDPF-58" value="" style="endArrow=none;html=1;rounded=0;exitX=0;exitY=0;exitDx=0;exitDy=0;entryX=1;entryY=1;entryDx=0;entryDy=0;" edge="1" parent="z04AXw_WrLB0skWwdDPF-74" source="z04AXw_WrLB0skWwdDPF-52" target="z04AXw_WrLB0skWwdDPF-6">
          <mxGeometry relative="1" as="geometry">
            <mxPoint x="450.3125" y="234.48461538461544" as="sourcePoint" />
            <mxPoint x="389.5833333333333" y="268.84615384615387" as="targetPoint" />
          </mxGeometry>
        </mxCell>
        <mxCell id="z04AXw_WrLB0skWwdDPF-59" value="&lt;span style=&quot;font-size: 8px;&quot;&gt;Height&lt;/span&gt;" style="ellipse;whiteSpace=wrap;html=1;align=center;" vertex="1" parent="z04AXw_WrLB0skWwdDPF-74">
          <mxGeometry x="34.375" y="177.4038461538462" width="57.291666666666664" height="34.61538461538462" as="geometry" />
        </mxCell>
        <mxCell id="z04AXw_WrLB0skWwdDPF-60" value="&lt;span style=&quot;font-size: 8px;&quot;&gt;Hair Color&lt;/span&gt;" style="ellipse;whiteSpace=wrap;html=1;align=center;" vertex="1" parent="z04AXw_WrLB0skWwdDPF-74">
          <mxGeometry y="236.53846153846152" width="68.75" height="34.61538461538462" as="geometry" />
        </mxCell>
        <mxCell id="z04AXw_WrLB0skWwdDPF-61" value="&lt;span style=&quot;font-size: 8px;&quot;&gt;Eye Color&lt;/span&gt;" style="ellipse;whiteSpace=wrap;html=1;align=center;" vertex="1" parent="z04AXw_WrLB0skWwdDPF-74">
          <mxGeometry x="11.458333333333332" y="305.7692307692308" width="68.75" height="34.61538461538462" as="geometry" />
        </mxCell>
        <mxCell id="z04AXw_WrLB0skWwdDPF-62" value="&lt;span style=&quot;font-size: 8px;&quot;&gt;DNAHash&lt;/span&gt;" style="ellipse;whiteSpace=wrap;html=1;align=center;" vertex="1" parent="z04AXw_WrLB0skWwdDPF-74">
          <mxGeometry x="80.20833333333333" y="340.3846153846154" width="68.75" height="34.61538461538462" as="geometry" />
        </mxCell>
        <mxCell id="z04AXw_WrLB0skWwdDPF-63" value="" style="endArrow=none;html=1;rounded=0;exitX=0;exitY=0;exitDx=0;exitDy=0;entryX=1;entryY=0.5;entryDx=0;entryDy=0;" edge="1" parent="z04AXw_WrLB0skWwdDPF-74" source="z04AXw_WrLB0skWwdDPF-5" target="z04AXw_WrLB0skWwdDPF-59">
          <mxGeometry relative="1" as="geometry">
            <mxPoint x="120.88541666666666" y="239.71153846153848" as="sourcePoint" />
            <mxPoint x="85.36458333333333" y="212.0192307692308" as="targetPoint" />
          </mxGeometry>
        </mxCell>
        <mxCell id="z04AXw_WrLB0skWwdDPF-64" value="" style="endArrow=none;html=1;rounded=0;exitX=0;exitY=0.5;exitDx=0;exitDy=0;entryX=1;entryY=0.5;entryDx=0;entryDy=0;" edge="1" parent="z04AXw_WrLB0skWwdDPF-74" source="z04AXw_WrLB0skWwdDPF-5" target="z04AXw_WrLB0skWwdDPF-60">
          <mxGeometry relative="1" as="geometry">
            <mxPoint x="104.27083333333333" y="291.3461538461538" as="sourcePoint" />
            <mxPoint x="68.75" y="263.65384615384613" as="targetPoint" />
          </mxGeometry>
        </mxCell>
        <mxCell id="z04AXw_WrLB0skWwdDPF-65" value="" style="endArrow=none;html=1;rounded=0;exitX=0;exitY=1;exitDx=0;exitDy=0;entryX=1;entryY=0.5;entryDx=0;entryDy=0;" edge="1" parent="z04AXw_WrLB0skWwdDPF-74" source="z04AXw_WrLB0skWwdDPF-5" target="z04AXw_WrLB0skWwdDPF-61">
          <mxGeometry relative="1" as="geometry">
            <mxPoint x="148.95833333333331" y="264.2307692307693" as="sourcePoint" />
            <mxPoint x="80.20833333333333" y="265.3846153846154" as="targetPoint" />
          </mxGeometry>
        </mxCell>
        <mxCell id="z04AXw_WrLB0skWwdDPF-66" value="" style="endArrow=none;html=1;rounded=0;exitX=0.25;exitY=1;exitDx=0;exitDy=0;entryX=0.5;entryY=0;entryDx=0;entryDy=0;" edge="1" parent="z04AXw_WrLB0skWwdDPF-74" source="z04AXw_WrLB0skWwdDPF-5" target="z04AXw_WrLB0skWwdDPF-62">
          <mxGeometry relative="1" as="geometry">
            <mxPoint x="160.41666666666666" y="275.7692307692308" as="sourcePoint" />
            <mxPoint x="91.66666666666666" y="276.92307692307696" as="targetPoint" />
          </mxGeometry>
        </mxCell>
        <mxCell id="z04AXw_WrLB0skWwdDPF-38" value="&lt;span style=&quot;color: rgb(32, 33, 34); font-family: sans-serif; font-size: 29px; text-align: start; background-color: rgb(255, 255, 255);&quot;&gt;∪&lt;/span&gt;" style="text;html=1;align=center;verticalAlign=middle;whiteSpace=wrap;rounded=0;rotation=-54;" vertex="1" parent="z04AXw_WrLB0skWwdDPF-74">
          <mxGeometry x="280.3472222222222" y="199.35728744939277" width="50.416666666666664" height="23.22874493927126" as="geometry" />
        </mxCell>
        <mxCell id="z04AXw_WrLB0skWwdDPF-36" value="&lt;span style=&quot;color: rgb(32, 33, 34); font-family: sans-serif; font-size: 29px; text-align: start; background-color: rgb(255, 255, 255);&quot;&gt;∪&lt;/span&gt;" style="text;html=1;align=center;verticalAlign=middle;whiteSpace=wrap;rounded=0;rotation=52;" vertex="1" parent="z04AXw_WrLB0skWwdDPF-74">
          <mxGeometry x="196.31944444444443" y="199.35728744939277" width="50.416666666666664" height="23.22874493927126" as="geometry" />
        </mxCell>
        <mxCell id="z04AXw_WrLB0skWwdDPF-1" value="Person" style="whiteSpace=wrap;html=1;align=center;" vertex="1" parent="z04AXw_WrLB0skWwdDPF-74">
          <mxGeometry x="221.52777777777774" y="121.15384615384616" width="84.02777777777777" height="30.971659919028344" as="geometry" />
        </mxCell>
        <mxCell id="z04AXw_WrLB0skWwdDPF-5" value="Suspect" style="whiteSpace=wrap;html=1;align=center;" vertex="1" parent="z04AXw_WrLB0skWwdDPF-74">
          <mxGeometry x="137.5" y="237.29757085020242" width="84.02777777777777" height="30.971659919028344" as="geometry" />
        </mxCell>
        <mxCell id="z04AXw_WrLB0skWwdDPF-75" value="" style="edgeStyle=orthogonalEdgeStyle;rounded=0;orthogonalLoop=1;jettySize=auto;html=1;" edge="1" parent="z04AXw_WrLB0skWwdDPF-74" source="z04AXw_WrLB0skWwdDPF-6" target="z04AXw_WrLB0skWwdDPF-5">
          <mxGeometry relative="1" as="geometry" />
        </mxCell>
        <mxCell id="z04AXw_WrLB0skWwdDPF-6" value="Investigator" style="whiteSpace=wrap;html=1;align=center;" vertex="1" parent="z04AXw_WrLB0skWwdDPF-74">
          <mxGeometry x="305.5555555555555" y="237.29757085020242" width="84.02777777777777" height="30.971659919028344" as="geometry" />
        </mxCell>
        <mxCell id="z04AXw_WrLB0skWwdDPF-26" value="" style="points=[[0.145,0.145,0],[0.5,0,0],[0.855,0.145,0],[1,0.5,0],[0.855,0.855,0],[0.5,1,0],[0.145,0.855,0],[0,0.5,0]];shape=mxgraph.bpmn.event;html=1;verticalLabelPosition=bottom;labelBackgroundColor=#ffffff;verticalAlign=top;align=center;perimeter=ellipsePerimeter;outlineConnect=0;aspect=fixed;outline=standard;symbol=general;" vertex="1" parent="z04AXw_WrLB0skWwdDPF-74">
          <mxGeometry x="255.13888888888883" y="175.35425101214577" width="15.225081110310022" height="15.225081110310022" as="geometry" />
        </mxCell>
        <mxCell id="z04AXw_WrLB0skWwdDPF-27" style="edgeStyle=orthogonalEdgeStyle;rounded=0;orthogonalLoop=1;jettySize=auto;html=1;entryX=0.5;entryY=0;entryDx=0;entryDy=0;entryPerimeter=0;strokeColor=default;endArrow=none;endFill=0;" edge="1" parent="z04AXw_WrLB0skWwdDPF-74" source="z04AXw_WrLB0skWwdDPF-1" target="z04AXw_WrLB0skWwdDPF-26">
          <mxGeometry relative="1" as="geometry" />
        </mxCell>
        <mxCell id="z04AXw_WrLB0skWwdDPF-32" value="" style="endArrow=none;html=1;rounded=0;exitX=0.5;exitY=0;exitDx=0;exitDy=0;entryX=0.145;entryY=0.855;entryDx=0;entryDy=0;entryPerimeter=0;" edge="1" parent="z04AXw_WrLB0skWwdDPF-74" source="z04AXw_WrLB0skWwdDPF-5" target="z04AXw_WrLB0skWwdDPF-26">
          <mxGeometry relative="1" as="geometry">
            <mxPoint x="129.09722222222223" y="190.84008097165992" as="sourcePoint" />
            <mxPoint x="263.54166666666663" y="190.84008097165992" as="targetPoint" />
          </mxGeometry>
        </mxCell>
        <mxCell id="z04AXw_WrLB0skWwdDPF-33" value="" style="endArrow=none;html=1;rounded=0;exitX=0.5;exitY=0;exitDx=0;exitDy=0;entryX=0.855;entryY=0.855;entryDx=0;entryDy=0;entryPerimeter=0;" edge="1" parent="z04AXw_WrLB0skWwdDPF-74" source="z04AXw_WrLB0skWwdDPF-6" target="z04AXw_WrLB0skWwdDPF-26">
          <mxGeometry relative="1" as="geometry">
            <mxPoint x="187.91666666666666" y="245.04048582995952" as="sourcePoint" />
            <mxPoint x="266.0625" y="196.26012145748987" as="targetPoint" />
          </mxGeometry>
        </mxCell>
        <mxCell id="z04AXw_WrLB0skWwdDPF-34" value="d" style="text;html=1;align=center;verticalAlign=middle;whiteSpace=wrap;rounded=0;" vertex="1" parent="z04AXw_WrLB0skWwdDPF-74">
          <mxGeometry x="246.7361111111111" y="177.28997975708506" width="33.61111111111111" height="11.61437246963563" as="geometry" />
        </mxCell>
        <mxCell id="z04AXw_WrLB0skWwdDPF-51" value="" style="endArrow=none;html=1;rounded=0;entryX=1;entryY=0.5;entryDx=0;entryDy=0;" edge="1" parent="z04AXw_WrLB0skWwdDPF-74" target="z04AXw_WrLB0skWwdDPF-1">
          <mxGeometry relative="1" as="geometry">
            <mxPoint x="366.66666666666663" y="102.36923076923078" as="sourcePoint" />
            <mxPoint x="366.66666666666663" y="188.90769230769232" as="targetPoint" />
          </mxGeometry>
        </mxCell>
      </root>
    </mxGraphModel>
  </diagram>
</mxfile>
